<?xml version="1.0" encoding="UTF-8" standalone="no"?>
<!-- Created with Inkscape (http://www.inkscape.org/) -->

<svg
   xmlns:dc="http://purl.org/dc/elements/1.1/"
   xmlns:cc="http://creativecommons.org/ns#"
   xmlns:rdf="http://www.w3.org/1999/02/22-rdf-syntax-ns#"
   xmlns:svg="http://www.w3.org/2000/svg"
   xmlns="http://www.w3.org/2000/svg"
   xmlns:sodipodi="http://sodipodi.sourceforge.net/DTD/sodipodi-0.dtd"
   xmlns:inkscape="http://www.inkscape.org/namespaces/inkscape"
   width="42.431156mm"
   height="73.46051mm"
   viewBox="0 0 42.431156 73.46051"
   version="1.1"
   id="svg4684"
   inkscape:version="0.92.2 (5c3e80d, 2017-08-06)"
   sodipodi:docname="escudo_uvigo.svg">
  <defs
     id="defs4678" />
  <sodipodi:namedview
     id="base"
     pagecolor="#ffffff"
     bordercolor="#666666"
     borderopacity="1.0"
     inkscape:pageopacity="0.0"
     inkscape:pageshadow="2"
     inkscape:zoom="4.1131509"
     inkscape:cx="80.184862"
     inkscape:cy="138.82301"
     inkscape:document-units="mm"
     inkscape:current-layer="layer1"
     showgrid="false"
     fit-margin-top="0"
     fit-margin-left="0"
     fit-margin-right="0"
     fit-margin-bottom="0"
     inkscape:window-width="2560"
     inkscape:window-height="1314"
     inkscape:window-x="130"
     inkscape:window-y="27"
     inkscape:window-maximized="0" />
  <metadata
     id="metadata4681">
    <rdf:RDF>
      <cc:Work
         rdf:about="">
        <dc:format>image/svg+xml</dc:format>
        <dc:type
           rdf:resource="http://purl.org/dc/dcmitype/StillImage" />
        <dc:title></dc:title>
      </cc:Work>
    </rdf:RDF>
  </metadata>
  <g
     inkscape:label="Capa 1"
     inkscape:groupmode="layer"
     id="layer1"
     transform="translate(-80.082036,-43.31141)">
    <g
       transform="matrix(0.3527778,0,0,0.3527778,-1.019651,-1.0655076)"
       id="g4661">
      <path
         style="fill:#a6a3a6;fill-opacity:1;fill-rule:nonzero;stroke:none"
         d="m 235.76953,136.0625 0.59766,0.99609 0.59765,1.07032 0.59766,1.07812 0.60156,1.07031 0.59766,0.9961 0.6875,1.07422 0.59765,1.07421 0.59766,1.07032 0.51172,-0.38282 0.59766,-0.30468 0.60156,-0.3086 0.51562,-0.30468 0.59375,-0.23047 0.51563,-0.30469 0.59765,-0.23047 0.51563,-0.30859 1.19531,-0.46094 0.51563,-0.23047 0.59765,-0.22656 0.59766,-0.15625 0.59766,-0.23047 0.51562,-0.15234 0.59766,-0.23047 0.17187,0.38281 0.17188,0.38672 0.16797,0.45703 0.25781,0.38281 0.85547,-0.30469 0.9414,-0.30859 0.85547,-0.30469 0.85547,-0.30859 0.94141,-0.30469 0.85547,-0.23047 0.9414,-0.23047 0.85547,-0.30468 0.9375,-0.23047 0.94141,-0.23047 0.85547,-0.23047 0.9414,-0.15234 0.94141,-0.23047 0.9414,-0.15235 0.85547,-0.15234 0.94141,-0.23437 -0.0859,-0.37891 v -0.38281 l -0.0859,-0.38672 -0.0859,-0.30469 0.76953,-0.23047 0.76953,-0.15234 0.68359,-0.23047 0.76953,-0.15234 0.85547,-0.15625 0.76953,-0.15235 0.76954,-0.0742 0.85546,-0.15625 0.76954,-0.0742 0.85937,-0.15234 0.85156,-0.0781 0.76953,-0.0781 0.85547,-0.0742 0.85547,-0.0781 h 0.85547 l 0.85547,-0.0781 v 0.84375 l 0.082,0.38672 v 0.38281 l 1.54297,-0.15625 3.07812,-0.30468 1.62891,-0.15625 1.53516,-0.0742 1.6289,-0.0781 1.53516,-0.0742 h 3.25391 l 1.62109,0.0742 h 1.62891 l 0.76953,0.0781 h 0.85547 l 0.76953,0.0742 0.85547,0.0781 0.76562,0.0781 h 0.77344 l 0.85547,0.0781 0.76953,0.14844 0.85547,0.0781 0.76953,0.0781 v -0.30469 l 0.0859,-0.38672 0.082,-0.38281 v -0.38281 l 0.85937,0.0781 0.76563,0.0742 h 0.77343 l 0.76954,0.0781 0.85546,0.0781 0.76954,0.0742 0.76953,0.15234 0.76953,0.0781 0.85547,0.0781 0.76953,0.15235 0.76953,0.0742 0.76953,0.15625 0.85938,0.15234 0.76562,0.15234 0.76953,0.15625 0.77344,0.14844 -0.0859,0.38672 -0.0859,0.46094 -0.0859,0.38281 -0.0859,0.37891 0.85547,0.15625 0.76953,0.15234 0.85547,0.15234 0.85547,0.15625 0.85156,0.23047 0.85937,0.15235 0.94141,0.23046 0.85547,0.23047 0.9375,0.30469 0.94141,0.23047 0.85546,0.30469 0.94141,0.23047 1.02734,0.30859 0.94141,0.30469 0.9375,0.30859 0.94531,0.30469 0.16797,-0.38281 0.17188,-0.38282 0.0859,-0.15234 0.0859,-0.15625 0.0859,-0.22656 0.0859,-0.15625 0.51172,0.15625 0.59765,0.22656 0.51172,0.15625 0.60156,0.15234 0.51172,0.23047 0.59766,0.23047 0.60156,0.22656 0.51172,0.23047 0.59766,0.3086 0.59765,0.23046 0.51563,0.30469 0.59765,0.3086 1.19922,0.61328 1.19531,0.6875 0.60157,-1.07032 0.59765,-1.07421 0.60157,-1.07422 0.59375,-0.9961 0.60156,-1.07031 0.59765,-1.07812 0.6836,-1.07032 0.60156,-0.99609 -3.42187,-1.30469 -3.42579,-1.14844 -3.42187,-1.07421 -3.33203,-0.9961 -3.42188,-0.91797 -3.42187,-0.84375 -3.41797,-0.76562 -3.42578,-0.69141 -3.33594,-0.61328 -3.41797,-0.45703 -3.42187,-0.46094 -3.42188,-0.38281 -3.42187,-0.23047 -3.33594,-0.23047 -3.42188,-0.15234 h -6.83984 l -3.33594,0.15234 -6.84375,0.46094 -3.42187,0.38281 -3.42188,0.46094 -3.33203,0.45703 -3.42187,0.61328 -3.42578,0.69141 -3.41797,0.76562 -3.42188,0.84375 -3.33594,0.91797 -3.42187,0.9961 -3.42188,1.07421 -3.41796,1.14844 z m 0,0"
         id="path888"
         inkscape:connector-curvature="0" />
      <path
         style="fill:#a6a3a6;fill-opacity:1;fill-rule:nonzero;stroke:none"
         d="m 334.14062,155.23047 -2.67968,-0.63281 -2.67969,-0.62891 -2.68359,-0.5625 -2.67579,-0.55859 -2.68359,-0.48829 -2.67969,-0.42187 -2.68359,-0.42188 -2.67969,-0.34765 -2.76953,-0.28125 -2.67969,-0.28125 -2.67578,-0.20703 -5.36719,-0.28125 -2.67578,-0.0703 -2.68359,-0.0703 h -2.67969 l -2.76562,0.0703 -2.6836,0.0703 -2.67968,0.14062 -2.6836,0.14063 -2.67969,0.20703 -2.67968,0.21094 -2.67969,0.28125 -2.76953,0.34765 -2.67969,0.35156 -2.67969,0.42188 -2.68359,0.34766 -2.67969,0.49218 -2.67969,0.48828 -2.68359,0.5625 -2.76562,0.5586 -2.67969,0.5625 -0.60547,-0.98438 -0.60547,-0.97656 -0.69141,-0.98047 -0.60546,-0.98047 -0.69141,-0.98047 -0.60938,-0.98046 -0.6914,-1.05079 -0.69141,-0.98046 1.03906,-0.41797 1.125,-0.49219 1.03907,-0.41797 0.94922,-0.42187 0.51953,-0.21094 0.51953,-0.14063 0.51953,-0.20703 0.51562,-0.14062 2.07813,-0.5625 0.0859,0.35156 0.17187,0.35156 0.17188,0.34766 0.17578,0.35156 0.94922,-0.35156 0.94922,-0.34766 1.03906,-0.28125 0.95312,-0.35156 0.95313,-0.27734 0.94922,-0.28125 1.03906,-0.28125 0.94922,-0.21094 0.95312,-0.20703 1.03516,-0.21094 0.95312,-0.21094 1.03516,-0.20703 1.03906,-0.14062 0.95313,-0.14063 1.03515,-0.14062 0.95313,-0.14063 -0.0859,-0.34766 -0.17578,-0.42187 -0.082,-0.42188 -0.0898,-0.34765 0.6914,-0.21094 1.21094,-0.28125 0.69141,-0.13672 0.6914,-0.0703 0.69141,-0.14063 0.60937,-0.0703 0.69141,-0.14062 1.38281,-0.14063 0.60547,-0.0703 1.38281,-0.14063 h 0.69141 l 0.69141,-0.0703 h 0.6914 v 1.47266 l 1.73047,-0.21094 1.64453,-0.0703 1.64453,-0.14063 1.64063,-0.14062 1.73047,-0.0664 h 1.64453 l 1.64062,-0.0703 h 5.10157 l 0.86718,0.0703 h 0.86328 l 0.77735,0.0664 h 0.86719 l 1.72656,0.14062 0.77734,0.0703 0.86719,0.0703 1.72656,0.14062 0.78125,0.0703 0.86719,0.14062 0.0859,-0.35156 v -0.34766 l 0.0859,-0.35156 v -0.35156 h 1.29688 l 1.38281,0.14062 h 0.60547 l 1.38281,0.14063 0.60547,0.14062 1.38281,0.14063 0.69141,0.14062 0.69531,0.0664 0.69141,0.14062 0.6875,0.14063 0.69531,0.14062 0.69141,0.14063 -0.0859,0.34765 -0.0859,0.42188 -0.0898,0.35156 v 0.34766 l 0.86719,0.14062 0.94922,0.14063 0.95312,0.21094 0.94922,0.14062 0.94922,0.20703 0.95703,0.21094 0.94922,0.21094 0.95312,0.20703 0.94922,0.21094 1.03516,0.28125 0.95312,0.28125 0.95313,0.20703 0.95312,0.35156 1.03516,0.28125 0.95312,0.27734 1.03907,0.35157 0.0859,-0.35157 0.16797,-0.34765 0.0899,-0.42188 0.17187,-0.34765 0.51953,0.13671 0.51953,0.14063 0.42969,0.14062 0.51953,0.14063 0.51953,0.21094 0.51954,0.14062 0.51562,0.20703 0.52344,0.21094 0.51562,0.21094 0.52344,0.21094 0.51563,0.21093 0.51953,0.27735 0.51953,0.21093 0.51953,0.28125 0.43359,0.20704 0.51563,0.28125 -0.60547,0.98046 -0.69141,1.05079 -0.6914,0.98046 -0.60547,0.98047 -0.69141,0.98047 -0.60937,0.98047 -0.69141,0.97656 z m 0,0"
         id="path890"
         inkscape:connector-curvature="0" />
      <path
         style="fill:#a6a3a6;fill-opacity:1;fill-rule:nonzero;stroke:none"
         d="m 229.89453,163.70703 v 127.05078 l 0.0781,1.76172 0.24609,1.76563 0.32422,1.76562 0.5664,1.76563 0.73438,1.76562 0.80859,1.76172 0.97657,1.76562 1.13671,1.6875 1.21485,1.76563 1.3789,1.6875 1.54297,1.6875 1.53907,1.61328 1.78906,1.60938 1.78515,1.53515 1.94532,1.60938 2.03125,1.46093 2.10937,1.45704 2.27344,1.45703 2.27344,1.30078 2.35156,1.38281 2.43359,1.23047 2.51563,1.22656 2.60156,1.14844 2.67578,1.07422 2.67969,1 2.76172,0.91797 2.7539,0.92187 2.84375,0.76563 2.83985,0.76953 2.92187,0.61328 2.92188,0.53516 2.91797,0.46093 2.84375,-0.46093 2.75781,-0.53516 2.84375,-0.69141 2.75391,-0.6914 2.76171,-0.84375 2.76172,-0.91797 2.67969,-0.92188 2.67578,-1.07422 2.59766,-1.07421 2.59765,-1.22657 2.51563,-1.23047 2.43359,-1.30078 2.4375,-1.38281 2.26953,-1.38281 2.27344,-1.45703 2.19141,-1.45703 2.11328,-1.53516 1.94531,-1.60938 1.86719,-1.61328 1.78516,-1.60937 1.70312,-1.60938 1.54297,-1.6875 1.46094,-1.6914 1.29687,-1.6836 1.21875,-1.6914 0.97266,-1.76172 0.89453,-1.69141 0.73047,-1.68359 0.64453,-1.76953 0.41016,-1.6836 0.24609,-1.6914 0.0781,-1.60938 V 163.70703 l -3.73437,-1.07422 -3.8125,-1.07422 -3.73438,-0.92187 -3.8164,-0.84375 -3.73047,-0.84375 -3.73438,-0.69141 -3.8125,-0.6914 -3.73437,-0.61329 -3.73438,-0.45703 -3.8125,-0.46093 -3.73437,-0.38672 -3.81641,-0.30469 -3.73437,-0.30859 -3.73047,-0.15235 -3.73438,-0.0742 -3.8125,-0.0781 -3.73437,0.0781 -3.73438,0.0742 -3.8164,0.15235 -3.73047,0.30859 -3.73438,0.30469 -3.73437,0.38672 -3.8125,0.46093 -3.73438,0.45703 -3.73437,0.61329 -3.8125,0.6914 -3.73438,0.69141 -3.73437,0.84375 -3.73047,0.84375 -3.81641,0.92187 -3.73046,1.07422 z m 0,0"
         id="path892"
         inkscape:connector-curvature="0" />
      <path
         style="fill:#00824f;fill-opacity:1;fill-rule:nonzero;stroke:none"
         d="m 279.96875,261.37109 h 18.82812 l -0.32421,-1.38281 -0.24219,-1.30078 -0.2461,-1.30469 -0.16015,-1.30469 -0.24219,-1.30468 -0.16406,-1.22657 -0.2461,-1.30468 -0.32031,-2.60938 -0.082,-1.22656 -0.16016,-1.30469 -0.082,-1.30469 -0.16406,-1.22656 -0.16406,-2.60937 -0.0781,-1.22657 v -1.30468 l -0.0859,-1.30469 v -1.30469 l -0.0781,-1.30078 v -6.67578 l 0.0781,-1.38281 v -1.37891 l 0.0859,-1.38281 0.0781,-2.83985 0.16406,-2.91406 0.082,-0.84375 0.48438,-1.6875 0.32422,-0.92187 0.32812,-0.84375 0.40234,-0.92188 0.97657,-1.6875 0.5664,-0.91797 0.64844,-0.84375 0.65234,-0.84375 0.64844,-0.84375 0.73047,-0.76953 0.8125,-0.84375 0.73047,-0.76562 0.80859,-0.69141 1.78907,-1.38281 0.89062,-0.6875 0.97266,-0.61719 0.97656,-0.53516 0.97266,-0.53515 0.97656,-0.53906 1.05078,-0.46094 1.05469,-0.38281 0.97656,-0.38282 1.05469,-0.23047 1.13672,-0.23046 1.05468,-0.23047 1.05469,-0.15235 h 3.24609 l 1.05469,0.0742 1.05469,0.0781 1.05469,0.15234 0.97656,0.23047 0.96875,0.30859 0.97656,0.3086 0.89453,0.38281 0.89063,0.38281 0.89453,0.46094 1.625,1.07031 0.8125,0.53906 0.72656,0.61329 0.65235,0.61328 0.72656,0.6914 0.57031,0.69141 0.64844,0.6875 0.5664,0.76953 0.48829,0.76953 0.48828,0.76563 0.40625,0.76562 0.40625,0.76953 0.40625,0.84375 0.23828,0.84375 0.32812,0.76563 0.16016,0.84375 0.32812,1.6875 0.082,0.76953 v 1.6875 l -0.89844,-0.23047 -0.88672,-0.23047 -0.97656,-0.23047 -0.89453,-0.15625 -0.89063,-0.22656 -0.89453,-0.15625 -0.89063,-0.0742 -0.89062,-0.15234 h -0.48828 l -0.41016,-0.0781 h -3.16406 l -0.40234,0.0781 h -0.48829 l -0.48828,0.0742 -0.40625,0.0781 -0.48437,0.0742 -0.40625,0.0781 -0.49219,0.0781 -0.88672,0.22656 -0.89844,0.23438 -0.88671,0.30469 -0.8125,0.38281 -0.89454,0.38672 -0.8125,0.53515 -0.89062,0.46094 -0.8125,0.61328 -0.80859,0.53516 -0.8125,0.61719 -0.89454,0.61328 -0.73046,0.6875 -1.6211,1.23047 -2.4375,1.83984 -0.80859,0.53906 -0.81641,0.53516 -0.72656,0.46094 -0.8125,0.46093 -0.8125,0.38282 L 306.75,228 l -0.80859,0.23047 -0.8125,0.22656 -0.8125,0.0781 h -0.89454 l -0.80859,-0.0781 -0.81641,-0.15234 -0.89062,-0.30469 -0.80859,-0.38672 -0.89844,-0.46094 0.32812,0.76953 0.40625,0.69141 0.40235,0.76563 0.41015,0.76562 0.40625,0.69141 0.48828,0.6914 0.48438,0.61328 0.48828,0.69141 0.56641,0.61328 0.57031,0.61328 0.56641,0.61328 0.65234,0.61329 0.64453,0.53906 0.65234,0.53906 0.64844,0.45703 0.64844,0.53906 0.73047,0.45704 0.73047,0.38671 0.72656,0.46094 0.81641,0.38281 0.73046,0.30469 0.8125,0.38672 0.8086,0.30469 1.625,0.46094 0.89062,0.23046 0.8125,0.15235 0.89453,0.15234 0.89454,0.15625 0.89062,0.0781 0.89453,0.0742 h 0.88672 l 1.22266,-0.0742 1.21484,-0.0781 1.13672,-0.15625 1.21875,-0.15234 1.13672,-0.23047 1.05469,-0.38281 1.13671,-0.30469 2.10938,-0.92188 0.97266,-0.46093 0.97656,-0.61328 0.97265,-0.61329 0.89063,-0.61328 0.89453,-0.6914 0.89063,-0.76953 0.8125,-0.76563 0.80859,-0.76562 0.73437,-0.84375 0.64844,-0.92188 0.65235,-0.84375 0.64843,-1 0.56641,-0.91797 0.48828,-0.99609 0.48438,-1.07813 0.40625,-1.07031 0.32812,-1.07422 0.32422,-1.07422 0.24219,-1.15234 0.24218,-1.14844 0.16407,-1.15234 0.0781,-1.15235 v -1.22656 l 0.082,-1.38281 -0.082,-1.37891 -0.16015,-1.38281 -0.24219,-1.30078 -0.32422,-1.38281 -0.48828,-1.30469 -0.48828,-1.22656 -0.56641,-1.30469 -0.73047,-1.22656 -0.73047,-1.15235 -0.8125,-1.15234 -0.89062,-1.07422 -0.97656,-0.99609 -1.05469,-0.9961 -1.05469,-0.92187 -1.14062,-0.84375 -1.21485,-0.76563 -1.29687,-0.76953 -1.29688,-0.61328 -1.3789,-0.61328 -1.38282,-0.46094 -1.46093,-0.38281 -1.54297,-0.30859 -1.46094,-0.23047 -1.62109,-0.0742 h -1.625 l -1.6211,0.0742 -1.625,0.23047 -1.70312,0.30859 -1.70313,0.46094 -1.70703,0.53515 -1.78516,0.69141 0.65235,-1.30469 0.5664,-1.30469 0.32422,-0.61328 0.24219,-0.6875 0.32422,-0.6914 0.24609,-0.69141 0.48438,-1.38281 0.24609,-0.76563 0.16016,-0.6914 0.16406,-0.76563 0.16016,-0.76953 0.16406,-1.53125 0.082,-0.76953 V 183.5 l -0.16406,-1.6875 -0.16016,-0.84375 -0.24609,-0.92188 -0.24219,-0.92187 -0.32422,-0.91797 -0.32422,-1 -0.48828,-0.99609 -0.40625,-0.9961 -0.5664,-1 -0.64844,-1.07031 -0.73438,-1.07422 -0.72656,-1.07422 -0.73437,-1 -0.72657,-0.91797 -0.8125,-0.84765 -0.8125,-0.83985 -0.89062,-0.76953 -0.89453,-0.6914 -0.89453,-0.61328 -1.94532,-1.22657 -1.05468,-0.46093 -0.97657,-0.46094 -1.05468,-0.46094 -1.05469,-0.30469 -1.05469,-0.30859 -1.13672,-0.23047 -1.05469,-0.22656 -1.13671,-0.15625 -1.05469,-0.0781 -1.13672,-0.0742 h -1.13281 l -1.14063,0.0742 -1.13281,0.15625 -1.13672,0.15235 -1.05469,0.23047 -1.13672,0.23046 -1.13671,0.38282 -1.05469,0.30859 -1.13672,0.45703 -1.05469,0.53906 -1.05469,0.53516 -1.05468,0.53906 -0.97657,0.69141 -1.29687,1.07031 -0.64844,0.53906 -0.5664,0.46094 -0.57032,0.61328 -0.57031,0.53907 -0.48437,0.53515 -0.48829,0.53906 -0.48828,0.61329 -0.48437,0.61328 -0.40625,0.53515 -0.40625,0.61719 -0.32422,0.61328 -0.40625,0.6875 -0.24219,0.61328 -0.32812,0.61719 -0.24219,0.6875 -0.32422,0.69141 -0.16406,0.6914 -0.24219,0.69141 -0.16016,0.76562 -0.16406,0.69141 -0.082,0.76563 -0.16016,0.76953 -0.082,0.84375 -0.082,0.76562 v 0.84375 l -0.082,0.84375 0.082,0.84375 v 1.84375 l 0.082,0.91797 0.56641,-0.99609 0.57031,-0.84375 0.56641,-0.76563 0.57031,-0.61719 0.64844,-0.61328 0.73047,-0.45703 0.64843,-0.30859 0.8125,-0.3086 0.73047,-0.15234 0.8125,-0.15234 0.8086,-0.0781 h 1.70703 l 0.89062,0.0781 0.89453,0.0781 0.97266,0.15235 1.94922,0.30468 1.94922,0.38672 1.05078,0.15235 1.05859,0.15234 1.05469,0.15234 2.10938,0.15625 1.13671,0.0742 h 1.05469 l 1.13281,-0.0742 1.14063,-0.15625 1.05469,-0.15234 1.13672,-0.30469 1.13671,-0.30859 0.89063,-0.3086 0.8125,-0.38281 0.8125,-0.30469 0.73047,-0.38281 0.73047,-0.38672 0.73047,-0.38281 0.32421,-0.15234 0.32422,-0.23438 0.32422,-0.22656 0.32031,-0.23047 0.32813,-0.23047 0.32422,-0.23047 0.32812,-0.15234 0.32032,-0.30859 0.32421,-0.23047 0.2461,-0.23047 0.32422,-0.30469 0.32422,-0.23047 0.24218,-0.30859 0.32813,-0.23047 0.32422,-0.30469 0.32031,-0.30859 0.57422,-0.6875 0.5625,-0.69141 0.48828,0.69141 0.40625,0.6875 0.40625,0.6914 0.32422,0.69141 0.32422,0.76563 0.24609,0.6914 0.16016,0.76953 0.24609,0.76563 0.0781,0.76953 0.082,0.83984 0.082,0.76953 v 0.76563 l -0.082,0.84375 v 0.76953 l -0.082,0.76563 -0.16016,0.84375 -0.16406,0.76953 -0.16016,0.76562 -0.24609,0.76563 -0.24219,0.76953 -0.24609,0.6875 -0.32422,0.76953 -0.24219,0.69141 -0.40625,0.6914 -0.32813,0.6875 -0.32031,0.61328 -0.40234,0.69141 -0.41016,0.53906 -0.48437,0.61328 -0.40625,0.53516 -0.40625,0.46094 -0.48828,0.53515 -1.6211,1.15235 -1.54297,1.07422 -1.54687,0.84375 -1.53906,0.6914 -1.53907,0.61328 -1.46093,0.38282 -1.46094,0.30859 -1.46094,0.15234 -1.46094,0.0781 h -1.46093 l -1.37891,-0.15625 -1.46094,-0.23047 -1.3789,-0.30469 -1.38282,-0.30859 -1.3789,-0.46094 -1.37891,-0.38281 -1.38281,-0.53516 -1.29688,-0.53906 -1.3789,-0.53516 -1.37891,-0.61328 -1.29687,-0.53906 -1.30079,-0.53516 -1.38281,-0.61718 -1.30078,-0.53516 -1.29297,-0.46094 -1.30078,-0.46094 -1.29687,-0.45703 -1.30079,-0.30859 -1.3789,-0.30859 -1.29688,-0.23047 -1.30078,-0.0742 -1.29687,-0.0781 -1.21485,0.0781 -1.21875,0.0742 -1.14062,0.0781 -1.21485,0.23047 -1.13671,0.23047 -1.05469,0.23047 -1.13672,0.30859 -1.05469,0.38281 -1.05469,0.46094 -0.97265,0.45703 -0.97656,0.46094 -0.97266,0.53906 -0.97266,0.60938 -0.8125,0.69531 -0.89062,0.69141 -0.8125,0.6875 -0.73047,0.76953 -0.80859,0.83984 -0.65235,0.84766 -0.65234,0.91797 -0.64844,0.92187 -0.56641,0.9961 -0.48828,1 -0.48828,1.07421 -0.40234,1.07422 -0.32422,1.14844 -0.32813,1.15234 -0.32031,1.22657 -0.16406,1.23047 -0.16406,1.30078 -0.0781,1.30468 v 2.53125 l 0.0781,1.15235 0.16406,1.15234 0.16406,1.14844 0.32031,1.15234 0.32813,1.07422 0.32422,1.07422 0.40234,1.07031 0.48828,1.07813 0.48828,0.99609 0.56641,0.91797 0.64844,1 0.65234,0.84375 0.65235,0.92188 0.80859,0.84375 0.73047,0.76562 0.8125,0.76563 0.89062,0.76953 0.8125,0.6914 1.94532,1.22657 0.97656,0.61328 0.97265,0.46093 2.10938,0.92188 1.13672,0.30469 1.05469,0.38281 1.13671,0.23047 1.21485,0.15234 1.14062,0.15625 1.21875,0.0781 1.21485,0.0742 h 0.89062 l 0.89453,-0.0742 0.89063,-0.0781 0.89453,-0.15625 0.89453,-0.15234 0.80859,-0.15235 0.8125,-0.23046 0.89454,-0.23047 0.8125,-0.23047 0.80859,-0.30469 0.8125,-0.38672 0.73047,-0.30469 0.73047,-0.38281 0.8125,-0.46094 0.73047,-0.38671 0.64843,-0.45704 0.73047,-0.53906 0.65235,-0.45703 0.64453,-0.53906 0.65234,-0.53906 0.64844,-0.61329 0.5664,-0.61328 0.57032,-0.61328 0.5664,-0.61328 0.48828,-0.69141 0.48438,-0.61328 0.48828,-0.6914 0.40625,-0.69141 0.48828,-0.76562 0.32422,-0.76563 0.40625,-0.69141 0.32422,-0.76953 -0.89453,0.46094 -0.8125,0.38672 -0.89063,0.30469 -0.8125,0.15234 -0.89062,0.0781 h -0.8125 l -0.8125,-0.0781 -0.8125,-0.22656 -0.8086,-0.23047 -0.8125,-0.30859 -0.8125,-0.38282 -0.8125,-0.46093 -0.73046,-0.46094 -0.8125,-0.53516 -0.8086,-0.53906 -2.4375,-1.83984 -1.62109,-1.23047 -0.81641,-0.6875 -0.80859,-0.61328 -0.8125,-0.61719 -0.8086,-0.53516 -0.8125,-0.61328 -0.89453,-0.46094 -0.80859,-0.53515 -0.89453,-0.38672 -0.8086,-0.38281 -0.89453,-0.30469 -0.89062,-0.23438 -0.89453,-0.22656 -0.48828,-0.0781 -0.40625,-0.0781 -0.48438,-0.0742 -0.40625,-0.0781 -0.48828,-0.0742 h -0.40625 l -0.48828,-0.0781 h -3 l -0.40625,0.0781 h -0.40625 l -0.89063,0.15234 -0.89453,0.0742 -0.8125,0.15625 -0.89062,0.22656 -0.89453,0.15625 -0.89454,0.23047 -0.88671,0.23047 -0.89844,0.23047 v -1.6875 l 0.082,-0.76953 0.16406,-0.84375 0.16016,-0.84375 0.16406,-0.84375 0.24219,-0.76563 0.32422,-0.84375 0.32812,-0.84375 0.40235,-0.76953 0.40625,-0.76562 0.48828,-0.76563 0.48828,-0.76953 0.48437,-0.76953 0.57032,-0.6875 0.64843,-0.69141 0.64453,-0.6914 0.65235,-0.61328 0.73047,-0.61329 0.73047,-0.53906 1.625,-1.07031 0.89453,-0.46094 0.80859,-0.38281 0.97266,-0.38281 0.89453,-0.3086 0.97265,-0.30859 0.97657,-0.23047 1.05468,-0.15234 0.97266,-0.0781 1.13672,-0.0742 h 2.10937 l 1.13672,0.0742 1.05469,0.15625 1.05078,0.15235 1.0586,0.23046 1.13671,0.38282 0.97266,0.30859 1.05469,0.45703 1.05859,0.46094 0.97266,0.53906 0.97265,0.53516 0.97657,0.61328 0.97265,0.69141 0.89063,0.6914 0.89453,0.69141 0.8125,0.6914 0.89062,0.76563 0.73047,0.84375 0.8125,0.76953 0.73047,0.84375 0.64844,0.84375 0.65234,0.83984 0.64844,0.84766 0.48828,0.84375 0.56641,0.84375 0.48437,0.84375 0.41016,0.84375 0.32422,0.84375 0.32422,0.76563 0.24218,0.84375 0.24219,0.76953 0.082,0.76562 0.082,1.15235 0.0781,1.14843 v 1.15235 l 0.082,1.22656 v 3.83594 l -0.082,1.30468 v 1.37891 l -0.0781,1.38281 -0.082,1.38282 -0.082,1.3789 -0.082,1.38281 -0.082,1.45704 -0.0781,1.45703 -0.16406,1.38281 -0.16015,1.45703 -0.082,1.45703 -0.16015,1.38281 -0.16406,1.45704 -0.16016,1.3789 -0.24609,1.45703 -0.16407,1.38282 -0.16015,1.3789 -0.24219,1.30469 -0.16406,1.38281 -0.24219,1.22656 -0.24219,1.30469 -0.24609,1.22656 -0.24219,1.22657 -0.24609,1.23047 z m 0,0"
         id="path894"
         inkscape:connector-curvature="0" />
      <path
         style="fill:#1e4fa6;fill-opacity:1;fill-rule:evenodd;stroke:none"
         d="m 266.00781,288.22266 -0.32422,0.53906 -0.24218,0.46094 -0.32422,0.46093 -0.32422,0.38282 -0.24219,0.46093 -0.32812,0.38282 -0.32422,0.46093 -0.32813,0.38282 -0.32031,0.30468 -0.32422,0.38672 -0.32812,0.30469 -0.32032,0.38672 -0.40625,0.23047 -0.32422,0.30468 -0.32812,0.3086 -0.40625,0.23047 -0.32422,0.23047 -0.40234,0.15234 -0.40625,0.23047 -0.8125,0.30469 -0.40625,0.0781 -0.40625,0.15234 -0.40235,0.0781 h -0.48828 l -0.40625,0.0781 h -0.89453 l -0.48828,-0.0781 -0.48438,-0.0781 -0.40625,-0.0742 L 254,295.1289 l -0.48828,-0.15235 -0.40625,-0.15234 -0.40625,-0.15625 -0.40625,-0.22656 -0.40625,-0.23047 -0.40625,-0.15625 -0.32031,-0.22657 -0.41016,-0.23046 -0.64844,-0.46094 -0.32422,-0.3086 -0.24218,-0.23046 -0.32813,-0.30469 -0.24219,-0.3086 -0.24218,-0.23046 -0.2461,-0.38282 -0.16015,-0.30468 -0.24219,-0.3086 -0.16406,-0.30469 -0.24219,-0.38671 -0.16406,-0.3086 -0.0781,-0.38281 -0.16797,-0.38281 -0.0781,-0.38282 -0.16407,-0.38671 -0.0781,-0.45704 -0.082,-0.38281 v -0.46094 l -0.082,-0.46093 v -1.38282 l 0.16406,-0.91796 0.32031,-0.91797 0.2461,-0.84766 0.40625,-0.76953 0.40625,-0.6875 0.40625,-0.61328 0.48437,-0.61719 0.97656,-1.07031 0.56641,-0.46094 0.56641,-0.38672 0.57031,-0.30469 0.64844,-0.30859 0.65234,-0.22656 0.56641,-0.15625 0.64843,-0.15235 0.65235,-0.0781 0.64453,-0.0742 h 0.65234 l 0.73047,0.0742 0.64844,0.0781 0.65234,0.0781 0.56641,0.23047 0.64844,0.22656 0.5664,0.23438 0.64844,0.30468 0.57031,0.3086 0.48828,0.38281 0.56641,0.38281 0.48828,0.46094 0.48828,0.45703 0.40235,0.53906 0.73437,1.07422 0.64844,1.15235 0.73047,0.99609 1.46093,2.14844 1.46094,1.99218 0.73047,0.92188 0.80859,1 0.73047,0.92187 0.8125,0.91797 0.73438,0.84375 0.80859,0.84375 0.8125,0.76953 0.8086,0.76563 0.8125,0.76562 1.625,1.38282 0.89062,0.61328 0.80859,0.61328 0.89844,0.53516 0.88672,0.46093 0.89844,0.46094 0.97265,0.46094 0.89454,0.30859 0.97265,0.30469 0.97266,0.30859 0.97265,0.23047 0.97657,0.15235 0.97265,0.0742 h 3.8125 l 1.54297,-0.14843 1.54297,-0.3086 1.46094,-0.46093 1.3789,-0.61329 1.30079,-0.6914 1.21484,-0.84375 1.21875,-0.91797 1.13672,-1 1.05469,-1.07422 1.05468,-1.15234 0.97266,-1.14844 0.97266,-1.23047 0.97656,-1.30078 0.89062,-1.22656 0.89844,-1.3086 0.89063,-1.30468 0.89062,-1.22657 0.8125,-1.22656 0.89453,-1.15234 0.89063,-1.14844 0.8125,-0.99609 0.89453,-1 0.89062,-0.92188 0.89453,-0.76562 0.97266,-0.6875 0.97266,-0.61719 0.97656,-0.38281 1.05469,-0.3086 1.05078,-0.0742 h 1.14062 l 1.21875,0.23047 0.40235,0.0781 0.40625,0.15234 0.40625,0.0742 0.40625,0.15625 0.40625,0.15234 0.32422,0.15235 0.40625,0.15234 0.32421,0.15625 0.32422,0.15234 0.32422,0.23047 0.32422,0.15235 0.32422,0.23047 0.32812,0.15625 0.23829,0.22656 0.32812,0.23047 0.24219,0.23437 0.24219,0.30469 0.24609,0.22656 0.24219,0.3086 0.16406,0.23046 0.24219,0.3086 0.16406,0.30469 0.16016,0.30859 0.16406,0.30469 0.16015,0.30859 0.16407,0.30859 0.0781,0.30469 0.16406,0.38281 0.082,0.38282 0.082,0.3125 0.082,0.3789 v 0.38282 l 0.082,0.46484 v 0.45703 l 0.0781,0.46094 -0.0781,0.46094 v 0.99609 l -0.082,0.38281 -0.082,0.46094 -0.16407,0.46094 -0.0781,0.46093 -0.16406,0.46094 -0.16407,0.38281 -0.16015,0.46094 -0.2461,0.38281 -0.16406,0.38282 -0.24219,0.38672 -0.24218,0.38281 -0.32813,0.38281 -0.23828,0.30469 -0.32812,0.38281 -0.32422,0.30859 -0.32032,0.3086 -0.41015,0.30469 -0.32422,0.23046 -0.40625,0.3086 -0.40234,0.23047 -0.40625,0.15234 -0.48829,0.23047 -0.40625,0.15234 -0.48828,0.15625 -0.48437,0.14844 -0.48828,0.0781 -0.56641,0.0781 -0.57031,0.0781 h -1.53906 l -0.97657,-0.15625 -0.40625,-0.0781 -0.48437,-0.14844 -0.40625,-0.15625 -0.40625,-0.15234 -0.41016,-0.15234 -0.40234,-0.23047 -0.32813,-0.23047 -0.40234,-0.23438 -0.32422,-0.22656 -0.32422,-0.23047 -0.40625,-0.30469 -0.32422,-0.30859 -0.32422,-0.30469 -0.24609,-0.3125 -0.32422,-0.30468 -0.32422,-0.38282 -0.24218,-0.30468 -0.32422,-0.38672 -0.2461,-0.38282 -0.48437,-0.76562 -0.57031,-0.76953 -0.48438,-0.76563 0.56641,1.6875 0.57031,1.45703 0.64844,1.37891 0.73047,1.15234 0.8125,0.9961 0.8125,0.92187 0.89062,0.69141 0.97266,0.61719 0.97656,0.53515 1.05469,0.3086 1.05078,0.22656 1.14062,0.0781 h 1.05469 l 1.13672,-0.0781 1.05469,-0.22656 1.13672,-0.3086 1.13281,-0.38672 1.05469,-0.46093 1.05859,-0.61328 1.05469,-0.61329 1.05468,-0.6914 0.97266,-0.76172 0.89063,-0.92188 0.89843,-0.84765 0.8086,-0.91797 0.8125,-1 0.64843,-1.07031 0.64844,-1.07813 0.48438,-1.07422 0.49218,-1.14843 0.40235,-1.07422 0.24609,-1.22657 0.082,-1 0.082,-0.99609 v -1.91797 l -0.082,-0.92187 -0.082,-0.84375 -0.16406,-0.91797 -0.24219,-0.84766 -0.16015,-0.84375 -0.2461,-0.84375 -0.32812,-0.76562 -0.32032,-0.76953 -0.41015,-0.6875 -0.40235,-0.69141 -0.48828,-0.69141 -0.48437,-0.6875 -0.48828,-0.61328 -0.57032,-0.61719 -0.5664,-0.61328 -0.64844,-0.53515 -0.64844,-0.53907 -0.73047,-0.46093 -0.73046,-0.45703 -0.73047,-0.46094 -0.8125,-0.38672 -1.625,-0.76563 -0.89453,-0.30468 -0.88672,-0.3125 -0.97657,-0.22657 -0.97265,-0.23046 -0.97266,-0.15235 -0.97656,-0.0781 h -0.97266 l -0.97656,0.0781 h -0.89453 l -0.89063,0.0742 -0.89062,0.15234 -0.81641,0.15625 -0.80859,0.15235 -0.73047,0.23047 -0.8125,0.23047 -0.72656,0.30468 -0.65235,0.23047 -0.73046,0.38672 -0.64844,0.30469 -0.56641,0.38281 -0.65234,0.38672 -1.13281,0.92187 -0.48829,0.45704 -0.48828,0.53906 -0.48437,0.53515 -0.48828,0.53516 -0.41016,0.61719 -0.48437,0.61328 -0.32422,0.61328 -0.40625,0.69141 -0.32422,0.6914 -0.32422,0.6875 -0.32422,0.76953 -0.32422,0.76563 -0.24219,0.76953 -0.24609,0.76563 -0.56641,-1.07422 -0.64843,-1 -0.65235,-0.9961 -0.73047,-0.91797 -0.80859,-0.84375 -0.8125,-0.84765 -0.8125,-0.6875 -0.89062,-0.69141 -0.89454,-0.6914 -0.97656,-0.53516 -0.97265,-0.53906 -0.97266,-0.46094 -1.05469,-0.38281 -0.97265,-0.30469 -1.0586,-0.30859 -2.10937,-0.30469 -1.05469,-0.0781 h -1.05469 l -1.13281,0.0781 -1.05859,0.0742 -1.05469,0.23047 -0.97266,0.23046 -1.05859,0.30469 -1.05078,0.38672 -0.97657,0.53516 -0.97265,0.53906 -0.89453,0.53516 -0.89063,0.6914 -0.89453,0.76953 -0.89062,0.83985 -0.73047,0.84765 0.96875,-0.46484 1.05859,-0.38281 1.05469,-0.30469 1.05469,-0.30859 1.05468,-0.22657 0.97657,-0.23047 1.05468,-0.15625 0.97266,-0.0742 h 2.92187 l 0.97266,0.15234 0.89453,0.15234 0.89063,0.15625 0.8125,0.22657 0.8125,0.30859 0.80859,0.38281 0.73438,0.38281 0.73046,0.38672 0.73047,0.45703 0.64844,0.53907 0.56641,0.53515 0.57031,0.61328 0.48828,0.61719 0.40234,0.6875 0.40625,0.76953 0.32422,0.76563 0.32813,0.76953 0.24219,0.84375 0.16015,0.92187 0.082,0.91797 v 0.92188 l -0.082,0.84375 -0.0781,0.76562 -0.16407,0.76953 -0.24218,0.69141 -0.16407,0.6875 -0.24218,0.69141 -0.24219,0.61328 -0.32813,0.53906 -0.32421,0.53516 -0.32032,0.46093 -0.41015,0.53516 -0.40625,0.38672 -0.40235,0.38281 -0.48828,0.38281 -0.48828,0.30469 -0.48437,0.23438 -0.48829,0.22656 -0.57031,0.15625 -0.5664,0.15234 -0.57032,0.0781 -0.64843,0.0742 h -1.30079 l -0.64453,-0.0742 -0.73437,-0.15235 -0.72656,-0.15625 -1.46094,-0.46093 -0.8125,-0.38282 -0.8086,-0.30468 -0.8164,-0.46094 -0.8086,-0.46484 -0.40625,-0.38282 -0.48828,-0.45703 -0.40234,-0.46094 -0.41016,-0.38671 -0.48437,-0.45704 -0.32422,-0.46093 -0.48828,-0.46094 -0.32422,-0.38281 -0.40625,-0.46485 -0.40625,-0.45703 -0.32813,-0.46094 -0.40234,-0.46093 -0.73047,-0.91797 -0.64844,-0.92188 -0.64843,-0.99609 -0.65235,-0.92188 -0.64843,-0.91796 -0.64844,-1 -0.56641,-0.91797 -1.14062,-2 -0.56641,-0.9961 -0.64844,-0.84375 -0.73047,-0.91797 -0.73046,-0.76953 -0.73438,-0.84375 -0.72656,-0.6875 -1.46094,-1.38281 -0.8125,-0.61328 -0.73047,-0.53906 -0.80859,-0.53516 -0.8125,-0.46094 -0.81641,-0.46093 -0.80859,-0.38282 -0.8086,-0.30859 -0.8125,-0.30469 -0.89453,-0.23437 -0.89062,-0.22657 -0.8125,-0.0781 -0.89063,-0.15234 h -1.87109 l -0.89063,0.0742 -0.97656,0.0781 -0.89062,0.15625 -0.97266,0.22656 -0.97656,0.3086 -0.97266,0.30468 -1.05469,0.38672 -0.97265,0.46094 -1.0586,0.45703 -1.05468,0.61328 -1.05469,0.61719 -0.97266,0.76562 -0.89062,0.84375 -0.8125,0.92188 -0.73047,0.99609 -0.64844,0.92188 -0.57031,1.07422 -0.40625,1.07031 -0.40625,1.07812 -0.32422,1.14844 -0.16016,1.07422 -0.16406,1.15234 -0.0781,1.23047 0.0781,1.14453 0.082,1.15625 0.16407,1.14844 0.24218,1.15235 0.40625,1.14843 0.40625,1.15235 0.48438,1.07422 0.57031,1.07421 0.56641,1.07422 0.73047,0.9961 0.8125,0.92187 0.8125,0.9961 0.89062,0.84375 0.97266,0.84765 1.05468,0.6875 1.13672,0.76563 1.21875,0.61718 1.21875,0.53907 1.29688,0.45703 1.3789,0.46094 0.64844,0.0742 1.14063,0.15625 h 1.70312 l 0.48828,-0.0781 0.56641,-0.0781 0.48828,-0.14843 0.48828,-0.082 0.48438,-0.15235 0.40625,-0.15234 0.48437,-0.23047 0.40625,-0.22656 0.40625,-0.23438 0.40625,-0.30469 0.40625,-0.30859 0.32031,-0.38281 0.41016,-0.3086 0.32422,-0.38281 0.32422,-0.46094 0.32422,-0.38281 0.32422,-0.53515 0.32812,-0.46094 0.48438,-1.07813 0.32421,-0.53515 0.16407,-0.61328 0.24218,-0.61329 0.2461,-0.61328 0.16015,-0.6914 z m 0,0"
         id="path896"
         inkscape:connector-curvature="0" />
      <path
         style="fill:#1e4fa6;fill-opacity:1;fill-rule:nonzero;stroke:none"
         d="m 282.72656,317.07031 -0.89062,0.23438 -0.97266,0.22656 -0.8125,0.15625 -0.89453,0.15234 -0.89063,0.15235 -0.8125,0.0781 -0.8125,0.0742 -0.73046,0.0781 h -2.27344 l -0.32422,-0.0781 h -0.40234 l -0.32813,-0.0742 h -0.32422 l -0.32422,-0.0781 -0.32422,-0.0742 -0.64843,-0.15625 -0.2461,-0.0742 -0.32422,-0.0781 -0.73046,-0.38281 -0.56641,-0.38281 -0.57031,-0.38281 -0.48438,-0.38672 -0.40625,-0.45703 -0.32422,-0.38672 -0.32422,-0.46094 -0.24609,-0.38281 -0.16016,-0.46094 -0.16015,-0.38281 v -1.22656 l 0.0781,-0.38672 0.16407,-0.37891 0.24218,-0.38281 0.24219,-0.3086 0.32422,-0.30859 0.32422,-0.23047 0.41015,-0.23047 0.40235,-0.23047 0.97656,-0.30468 0.56641,-0.0781 0.5664,-0.0742 h 0.65235 l 0.64843,0.0742 0.73047,0.0781 0.73047,0.15234 0.73047,0.23047 0.80859,0.30469 0.81641,0.38672 0.89063,0.38281 0.89062,0.46094 0.80859,0.45703 0.89844,0.46484 0.8125,0.45703 0.89063,0.38672 0.89453,0.46094 0.80859,0.45703 0.89453,0.46094 0.8125,0.46484 0.89453,0.38281 0.8086,0.45703 0.89453,0.46094 0.80859,0.38281 0.89453,0.46094 0.89063,0.46094 0.73437,0.38281 0.64454,0.38281 0.73437,0.38282 0.72656,0.38672 0.73438,0.30468 0.72656,0.30469 0.73438,0.30859 0.73046,0.30469 0.73047,0.23047 0.8086,0.23438 0.73047,0.22656 0.73046,0.23047 0.73047,0.15625 0.73047,0.15234 0.73047,0.15625 0.8125,0.14844 1.46094,0.15625 0.8125,0.0781 0.73047,0.0781 h 1.46093 l 0.8086,-0.0781 h 0.73437 l 0.8086,-0.0781 0.73047,-0.0781 0.73046,-0.15234 0.8125,-0.15234 0.73047,-0.15625 0.8125,-0.15235 1.46094,-0.46094 0.57031,-0.23046 0.48438,-0.15235 0.5664,-0.23047 0.40625,-0.23047 0.48829,-0.23046 0.40625,-0.23047 0.48828,-0.23047 0.40234,-0.30469 0.32422,-0.23047 0.41016,-0.30469 0.32421,-0.30859 0.32032,-0.30859 0.32812,-0.30469 0.32422,-0.30859 0.24219,-0.3086 0.32422,-0.38281 0.16406,-0.30469 0.24219,-0.38281 0.24218,-0.30859 0.16016,-0.38282 0.16797,-0.38281 0.16016,-0.38281 0.082,-0.38672 0.16015,-0.45703 0.082,-0.38672 v -0.46094 l 0.082,-0.38281 v -1.83984 l -0.082,-0.46094 -0.16015,-1.07422 -0.32422,-0.99609 -0.40625,-0.84375 -0.49219,-0.84766 -0.5625,-0.76563 -0.73437,-0.61328 -0.72657,-0.61328 -1.625,-0.92187 -0.97656,-0.38282 -0.89062,-0.30859 -1.05469,-0.23047 -1.05469,-0.14844 -1.05469,-0.0781 h -2.1914 l -1.13672,0.0781 -1.13672,0.14844 -1.05469,0.15625 -1.13672,0.30469 -2.10937,0.61719 -1.05469,0.38281 -0.97265,0.45703 -0.89454,0.46484 -0.89453,0.53516 -0.89062,0.53516 -0.73047,0.61328 -0.64844,0.61719 -0.64844,0.6875 -0.57031,0.6914 -0.40625,0.69141 0.97656,-0.46094 0.48438,-0.15234 0.48828,-0.15235 0.48438,-0.23437 0.57031,-0.15235 0.48828,-0.15234 0.48437,-0.15234 0.48829,-0.15235 0.48828,-0.0781 0.48437,-0.15235 0.48828,-0.0781 0.56641,-0.0742 0.48437,-0.0781 0.49219,-0.0781 0.48828,-0.0781 h 0.56641 l 0.48437,-0.0781 h 2.51563 l 0.48828,0.0781 0.57031,0.0781 h 0.48438 l 0.48828,0.0781 0.48437,0.0781 0.56641,0.0742 0.49219,0.15234 0.48828,0.0781 0.48437,0.15234 0.32422,0.15235 0.24219,0.15625 0.24609,0.22656 0.24219,0.15625 0.24219,0.23047 0.16406,0.22656 0.16406,0.15625 0.16016,0.23047 0.082,0.23047 0.16016,0.23047 0.082,0.22656 0.082,0.23047 v 0.23437 l 0.082,0.22656 V 311.625 L 313,312.08594 l -0.082,0.15234 -0.082,0.23047 -0.16016,0.23047 -0.082,0.15234 -0.16016,0.23047 -0.16015,0.15625 -0.2461,0.23047 -0.16406,0.15234 -0.24219,0.15235 -0.16406,0.15234 -0.24219,0.15625 -0.32422,0.0742 -0.48437,0.23047 -0.48828,0.23047 -0.57031,0.15234 -0.48829,0.15625 -0.48437,0.15625 -0.48828,0.14844 -0.56641,0.0781 -0.97656,0.15625 -0.56641,0.0703 h -0.48828 l -0.48437,0.082 H 303.75 l -0.48828,-0.082 h -0.48438 l -0.57031,-0.0703 -0.48828,-0.0781 -0.48828,-0.15625 -0.56641,-0.0781 -0.48828,-0.15234 -0.48437,-0.15234 -0.48829,-0.15235 -0.57031,-0.15234 -0.48437,-0.15625 -0.48828,-0.23047 -0.56641,-0.15234 -0.48438,-0.23047 -0.48828,-0.23047 -0.57031,-0.30469 -0.48437,-0.23047 -0.48829,-0.30859 -1.625,-0.91797 -1.53906,-0.84766 -1.54297,-0.92187 -1.54297,-0.76172 -1.54296,-0.84766 -1.45704,-0.76562 -0.8164,-0.38281 -0.72656,-0.38282 -0.73047,-0.30859 -0.73438,-0.38672 -0.72656,-0.30469 -0.73047,-0.30859 -1.46094,-0.60938 -0.73437,-0.30859 -0.72656,-0.23047 -0.65235,-0.23047 -0.73047,-0.23047 -0.72656,-0.23046 -0.65234,-0.23047 -0.73047,-0.15235 -0.64844,-0.23047 -0.73047,-0.15234 -0.64844,-0.15625 -0.64843,-0.0742 -0.73438,-0.15625 -0.72656,0.0781 -0.8125,0.0781 -0.73047,0.0742 -0.73047,0.0781 -1.46094,0.30468 -0.64843,0.15625 -0.64844,0.23047 -0.65234,0.23047 -0.56641,0.23047 -0.57031,0.30859 -0.48828,0.30469 -0.56641,0.30859 -0.48438,0.30469 -1.21875,1.14844 -0.40625,0.46484 -0.32421,0.38282 -0.24219,0.46093 -0.32813,0.45703 -0.16015,0.53907 -0.24219,0.53906 -0.16406,0.45703 -0.0781,0.61328 -0.0859,0.53906 -0.0781,0.61329 v 1.14843 l 0.0781,0.69141 0.16407,0.61328 0.082,0.69141 0.48437,1 0.48828,0.84375 0.56641,0.84375 0.57031,0.76562 0.64844,0.69141 0.73047,0.6875 0.64844,0.53906 0.8125,0.53516 0.73047,0.46093 0.89453,0.38282 0.80859,0.30859 0.8125,0.30469 0.89453,0.15625 0.89063,0.15625 0.89453,0.15234 h 2.67969 l 0.89062,-0.15234 0.89453,-0.15625 0.89063,-0.15625 0.8125,-0.22656 0.8125,-0.3086 0.80859,-0.30859 0.80859,-0.38281 0.73438,-0.45704 0.73047,-0.38671 0.65234,-0.53516 0.64844,-0.53906 0.56641,-0.53516 0.48828,-0.61328 z m 0,0"
         id="path898"
         inkscape:connector-curvature="0" />
    </g>
  </g>
</svg>
